<?xml version="1.0" standalone="no"?>
<!DOCTYPE svg PUBLIC "-//W3C//DTD SVG 20010904//EN"
 "http://www.w3.org/TR/2001/REC-SVG-20010904/DTD/svg10.dtd">
<svg version="1.0" xmlns="http://www.w3.org/2000/svg"
 width="666.000000pt" height="666.000000pt" viewBox="0 0 666.000000 666.000000"
 preserveAspectRatio="xMidYMid meet">
<metadata>
Created by potrace 1.14, written by Peter Selinger 2001-2017
</metadata>
<g transform="translate(0.000000,666.000000) scale(0.100000,-0.100000)"
fill="#000000" stroke="none">
<path d="M2155 5817 c-74 -25 -147 -100 -166 -171 -6 -22 -9 -66 -7 -97 4 -57
15 -81 178 -394 31 -60 99 -191 150 -290 51 -99 121 -234 155 -300 34 -66 104
-201 155 -300 192 -374 264 -514 330 -640 37 -71 97 -187 133 -257 36 -70 74
-138 84 -152 32 -43 80 -67 147 -73 54 -5 71 -2 110 17 70 36 57 13 318 520
233 451 263 509 335 650 l75 145 -5 70 c-2 44 -12 85 -25 111 -24 47 -81 100
-128 120 -76 32 -178 5 -230 -60 -29 -37 -40 -56 -269 -501 -73 -143 -140
-273 -148 -288 l-15 -29 -51 99 c-28 54 -74 143 -102 198 -28 55 -77 150 -108
210 -219 425 -301 582 -346 670 -46 89 -205 396 -304 589 -56 109 -110 151
-202 160 -19 2 -47 -1 -64 -7z"/>
<path d="M1145 5806 c-71 -22 -128 -57 -185 -115 -57 -56 -116 -158 -126 -216
-2 -17 -7 -38 -10 -48 -10 -34 -5 -142 10 -199 9 -31 42 -107 74 -170 80 -153
202 -390 302 -583 185 -358 256 -496 320 -620 37 -71 106 -204 152 -295 47
-91 123 -237 168 -325 163 -315 218 -423 315 -610 54 -104 120 -232 146 -282
27 -51 52 -101 57 -110 20 -42 32 -65 99 -193 39 -74 112 -216 163 -315 51
-99 118 -229 150 -290 31 -60 93 -179 136 -264 94 -184 145 -246 242 -293 63
-31 73 -33 172 -33 91 1 112 4 160 27 66 31 133 87 165 139 14 20 59 104 101
186 42 81 107 207 144 278 37 72 111 216 165 320 54 105 123 240 155 300 32
61 104 200 160 310 56 110 131 254 165 320 34 66 101 194 147 285 47 91 121
233 163 315 43 83 116 224 163 315 46 91 117 228 157 305 40 77 110 212 155
300 46 88 114 221 153 295 226 437 331 649 343 694 27 101 14 223 -36 331 -44
97 -155 199 -255 235 -58 21 -185 22 -242 3 -60 -20 -142 -73 -168 -109 -11
-15 -25 -32 -31 -38 -11 -12 -56 -98 -280 -531 -65 -126 -144 -279 -175 -340
-32 -60 -89 -171 -127 -245 -38 -74 -106 -207 -152 -295 -137 -265 -213 -411
-310 -600 -51 -99 -123 -238 -160 -310 -37 -71 -109 -211 -160 -310 -51 -99
-123 -238 -160 -310 -37 -71 -105 -202 -150 -290 -45 -88 -85 -161 -89 -163
-5 -1 -43 66 -86 150 -43 84 -104 203 -135 263 -32 61 -97 187 -145 280 -48
94 -116 224 -150 290 -58 113 -115 222 -330 640 -48 94 -116 224 -150 290 -94
181 -217 417 -226 437 -5 10 -14 28 -21 40 -6 13 -49 97 -96 188 -46 91 -106
206 -132 255 -26 50 -96 185 -155 300 -60 116 -120 228 -133 250 -37 59 -89
104 -162 139 -54 25 -78 31 -145 32 -44 1 -98 -3 -120 -10z"/>
</g>
</svg>
